<?xml version="1.0" encoding="utf-8" ?>
<svg xmlns="http://www.w3.org/2000/svg" xmlns:xlink="http://www.w3.org/1999/xlink" width="689" height="689">
	<defs>
		<linearGradient id="gradient_0" gradientUnits="userSpaceOnUse" x1="335.52817" y1="368.77222" x2="174.93495" y2="192.23874">
			<stop offset="0" stop-color="#7A09F8"/>
			<stop offset="1" stop-color="#CF0CFA"/>
		</linearGradient>
	</defs>
	<path fill="url(#gradient_0)" transform="scale(1.3457 1.3457)" d="M277.408 213.218L314.32 213.21C328.834 213.244 334.554 220.637 334.526 234.612L334.495 244.037L358.842 244.037C363.084 240.338 373.532 225.328 378.555 231.739C381.768 235.84 366.642 249.416 362.501 252.462C353.209 252.783 343.799 252.47 334.495 252.462L334.495 279.009C337.067 279.005 376.213 275.372 365.664 286.454C363.414 288.817 356.135 287.732 353.199 287.729L334.495 287.703L334.495 309.054C338.949 309.048 359.3 308.327 361.883 309.824C364.28 311.213 388.328 332.001 375.104 332.745C372.17 332.91 360.628 320.09 357.662 317.291C349.947 317.274 342.206 317.478 334.495 317.291L334.509 338.688C334.507 360.613 334.885 370.067 308.186 370.039L232.187 370.026L206.246 370.034C180.536 370.016 177.496 363.45 177.499 339.343L177.515 317.291L155.729 317.291C150.877 320.066 141.512 332.747 137.593 333.191C133.984 333.599 132.326 329.409 134.109 326.703C135.516 324.569 137.686 322.815 139.479 320.998L147.241 313.106C154.522 305.847 166.972 309.032 177.515 309.054L177.515 287.703C170.413 286.782 158.179 287.718 150.255 287.415C146.309 287.264 143.261 282.632 146.914 279.717C148.63 278.347 173.456 278.722 177.515 279.009L177.515 252.462C172.475 252.826 152.852 253.598 149.402 250.506C146.923 248.285 133.186 235.45 132.54 233.201C131.887 230.929 133.23 228.473 135.612 228.053C140.037 227.274 150.753 240.765 155.729 244.037L177.515 244.037C177.797 220.631 178.554 213.183 204.919 213.207L277.408 213.218ZM185.945 259.233L216.241 259.233C219.104 254.476 224.062 250.8 227.965 246.912C230.496 244.391 237.403 234.972 241.62 237.496C247.572 241.059 239.26 247.429 236.522 250.21C232.855 253.936 229.167 257.576 225.43 261.232C216.756 269.718 218.328 267.777 206.364 267.768L185.945 267.739L185.931 341.942C185.91 359.081 186.459 361.802 203.771 361.685L217.519 361.64L217.499 337.645C217.497 333.93 217.067 329.552 217.708 325.903C218.304 322.511 222.75 320.604 225.18 323.51C227.067 325.767 226.012 334.485 226.011 337.435L226.002 361.64C230.881 361.932 235.862 361.61 240.754 361.64L240.741 308.566C240.741 306.309 240.592 303.916 240.867 301.678C241.206 298.925 249.156 293.288 249.016 307.509L249.007 361.64C253.457 361.789 257.912 361.62 262.364 361.64L263.189 361.619C263.816 360.588 263.269 349.346 263.27 347.6L263.282 299.371C263.278 297.279 260.761 273.853 269.704 279.608C272.953 281.698 271.906 289 271.892 292.2L271.89 361.64L286.253 361.64L286.237 333.876C286.235 329.693 285.773 324.977 286.408 320.875C287.141 316.146 294.396 316.089 294.747 321.187C295.055 325.65 294.78 330.316 294.775 334.802L294.761 361.64C300.287 361.578 315.246 362.38 319.589 361.069C327.478 358.687 325.956 348.634 325.915 342.29L325.887 267.739C319.004 267.465 294.956 269.454 290.557 265.622C281.376 257.624 272.773 247.429 263.477 239.004C254.183 230.58 255.118 239.711 254.986 221.897C248.979 222.09 242.935 221.899 236.922 221.894L194.878 221.897C184.488 223.885 185.924 233.144 185.926 241.277L185.945 259.233ZM263.279 221.897C263.26 223.72 263.178 225.578 263.279 227.398C272.496 237.121 288.179 249.442 295.738 259.233L315.716 259.216C319.081 259.213 322.534 259.036 325.887 259.233L325.906 239.699C325.928 217.795 321.861 221.869 302.856 221.885L264.402 221.882C264.028 221.882 263.653 221.888 263.279 221.897Z"/>
	<path fill="#D400F1" transform="scale(1.3457 1.3457)" d="M277.408 109.851C290.637 108.136 300.094 125.244 289.281 137.22C293.5 146.543 297.06 156.255 301.056 165.689C328.205 172.457 312.282 207.202 291.719 196.078C284.977 192.431 286.666 189.165 282.981 185.144C278.878 180.667 258.046 163.773 256.89 159.372C256.422 157.594 257.392 154.948 259.416 154.646C263.939 153.972 279.886 171.82 285.143 175.52C286.2 171.42 288.436 169.119 292.381 167.403C289.229 158.331 284.973 149.732 281.783 140.711C272.03 141.689 265.187 138.236 262.364 128.31L258.812 128.31L252.015 128.31C249.048 137.407 243.042 142.198 233.26 140.711C230.28 149.353 226.428 157.815 223.697 166.507C228.35 168.557 230.719 171.194 233.26 175.52C234.887 175.518 257.111 174.524 248.884 182.552C246.318 185.055 236.925 184.112 233.26 184.077C231.993 196.052 217.631 202.215 207.908 194.686C196.365 185.749 200.21 167.351 214.626 165.689C219.249 156.587 221.502 146.386 226.002 137.22C207.552 121.823 236.78 95.133 250.866 119.989C254.992 120.104 259.149 119.977 263.279 119.989C266.872 114.687 270.623 110.671 277.408 109.851ZM219.127 189.583Q219.323 189.545 219.517 189.497Q219.711 189.45 219.903 189.393Q220.094 189.336 220.283 189.269Q220.471 189.203 220.656 189.127Q220.841 189.052 221.022 188.967Q221.203 188.883 221.38 188.79Q221.557 188.696 221.729 188.595Q221.901 188.493 222.068 188.383Q222.234 188.272 222.395 188.154Q222.557 188.036 222.712 187.91Q222.867 187.784 223.016 187.651Q223.164 187.518 223.306 187.377Q223.449 187.236 223.584 187.089Q223.719 186.942 223.846 186.788Q223.974 186.634 224.094 186.474Q224.214 186.315 224.326 186.149Q224.438 185.984 224.541 185.813Q224.645 185.642 224.74 185.466Q224.835 185.291 224.922 185.111Q225.008 184.93 225.086 184.746Q225.163 184.562 225.232 184.374Q225.3 184.187 225.359 183.996Q225.419 183.805 225.468 183.611Q225.518 183.418 225.558 183.222Q225.598 183.026 225.629 182.829Q225.659 182.631 225.68 182.433Q225.701 182.234 225.712 182.034Q225.723 181.835 225.724 181.635Q225.726 181.435 225.717 181.236Q225.709 181.036 225.69 180.837Q225.672 180.638 225.644 180.44Q225.616 180.242 225.578 180.046Q225.54 179.85 225.493 179.656Q225.446 179.461 225.389 179.27Q225.332 179.078 225.266 178.89Q225.2 178.701 225.125 178.516Q225.049 178.331 224.965 178.15Q224.881 177.968 224.788 177.792Q224.695 177.615 224.593 177.443Q224.492 177.27 224.382 177.104Q224.272 176.937 224.154 176.775Q224.036 176.614 223.91 176.459Q223.785 176.303 223.652 176.154Q223.518 176.005 223.378 175.863Q223.238 175.721 223.091 175.586Q222.943 175.45 222.79 175.323Q222.636 175.195 222.477 175.074Q222.317 174.954 222.152 174.842Q221.986 174.73 221.816 174.626Q221.645 174.522 221.469 174.427Q221.294 174.331 221.114 174.244Q220.934 174.158 220.75 174.08Q220.566 174.002 220.378 173.933Q220.19 173.865 220 173.805Q219.809 173.746 219.615 173.696Q219.422 173.646 219.226 173.605Q219.03 173.565 218.833 173.534Q218.636 173.503 218.437 173.482Q218.238 173.461 218.039 173.45Q217.839 173.438 217.639 173.437Q217.439 173.435 217.24 173.444Q217.04 173.452 216.841 173.47Q216.642 173.488 216.444 173.516Q216.246 173.544 216.05 173.581Q215.853 173.619 215.659 173.666Q215.464 173.713 215.272 173.769Q215.08 173.826 214.891 173.892Q214.702 173.958 214.517 174.033Q214.331 174.108 214.149 174.193Q213.968 174.277 213.791 174.37Q213.613 174.463 213.441 174.565Q213.268 174.666 213.101 174.776Q212.934 174.886 212.772 175.004Q212.61 175.122 212.455 175.248Q212.299 175.374 212.15 175.507Q212 175.641 211.858 175.781Q211.715 175.922 211.58 176.069Q211.444 176.217 211.316 176.37Q211.188 176.524 211.067 176.684Q210.947 176.844 210.835 177.01Q210.722 177.175 210.618 177.346Q210.514 177.517 210.418 177.693Q210.323 177.869 210.236 178.05Q210.149 178.23 210.071 178.414Q209.993 178.599 209.925 178.787Q209.856 178.975 209.796 179.166Q209.737 179.357 209.687 179.551Q209.637 179.745 209.597 179.941Q209.556 180.137 209.526 180.335Q209.495 180.533 209.474 180.732Q209.453 180.931 209.442 181.131Q209.431 181.331 209.43 181.531Q209.428 181.731 209.437 181.931Q209.445 182.131 209.464 182.331Q209.482 182.53 209.51 182.728Q209.538 182.926 209.576 183.123Q209.614 183.32 209.661 183.514Q209.709 183.709 209.766 183.901Q209.822 184.092 209.889 184.281Q209.955 184.47 210.03 184.656Q210.106 184.841 210.19 185.023Q210.275 185.204 210.368 185.381Q210.461 185.558 210.563 185.731Q210.665 185.903 210.775 186.07Q210.886 186.237 211.004 186.399Q211.122 186.56 211.248 186.716Q211.374 186.871 211.508 187.02Q211.642 187.169 211.782 187.312Q211.923 187.454 212.071 187.59Q212.218 187.725 212.372 187.853Q212.526 187.981 212.686 188.101Q212.846 188.221 213.012 188.333Q213.178 188.445 213.349 188.549Q213.52 188.653 213.696 188.748Q213.872 188.844 214.053 188.93Q214.233 189.017 214.418 189.094Q214.602 189.172 214.791 189.241Q214.979 189.309 215.17 189.368Q215.361 189.427 215.555 189.477Q215.749 189.527 215.945 189.567Q216.141 189.607 216.339 189.637Q216.537 189.668 216.736 189.688Q216.935 189.709 217.135 189.72Q217.335 189.731 217.535 189.732Q217.735 189.733 217.935 189.724Q218.135 189.715 218.335 189.696Q218.534 189.678 218.732 189.649Q218.93 189.621 219.127 189.583ZM300.611 189.618Q300.869 189.576 301.124 189.518Q301.38 189.459 301.63 189.384Q301.881 189.308 302.126 189.216Q302.371 189.125 302.61 189.017Q302.848 188.909 303.079 188.786Q303.31 188.663 303.532 188.524Q303.754 188.386 303.967 188.233Q304.18 188.081 304.382 187.914Q304.584 187.748 304.775 187.569Q304.965 187.39 305.144 187.198Q305.322 187.007 305.487 186.804Q305.653 186.601 305.804 186.388Q305.956 186.174 306.093 185.951Q306.231 185.728 306.353 185.497Q306.475 185.266 306.582 185.027Q306.688 184.788 306.779 184.542Q306.87 184.296 306.944 184.046Q307.018 183.795 307.076 183.539Q307.133 183.284 307.174 183.025Q307.214 182.767 307.238 182.506Q307.261 182.245 307.267 181.984Q307.273 181.722 307.262 181.461Q307.251 181.199 307.223 180.939Q307.194 180.679 307.149 180.421Q307.103 180.163 307.041 179.909Q306.978 179.655 306.899 179.406Q306.82 179.156 306.725 178.912Q306.629 178.669 306.518 178.432Q306.407 178.195 306.28 177.966Q306.154 177.737 306.012 177.517Q305.871 177.296 305.715 177.086Q305.559 176.876 305.39 176.676Q305.221 176.476 305.039 176.288Q304.857 176.1 304.663 175.925Q304.469 175.749 304.263 175.587Q304.058 175.424 303.842 175.276Q303.627 175.127 303.402 174.993Q303.177 174.859 302.944 174.741Q302.711 174.622 302.47 174.519Q302.23 174.415 301.983 174.328Q301.736 174.241 301.484 174.171Q301.232 174.1 300.976 174.046Q300.72 173.993 300.461 173.956Q300.202 173.919 299.941 173.9Q299.68 173.88 299.418 173.878Q299.156 173.875 298.895 173.89Q298.634 173.905 298.374 173.938Q298.114 173.97 297.857 174.019Q297.668 174.055 297.481 174.101Q297.293 174.146 297.109 174.201Q296.924 174.255 296.742 174.318Q296.56 174.382 296.382 174.454Q296.203 174.526 296.028 174.607Q295.853 174.688 295.682 174.777Q295.512 174.866 295.345 174.963Q295.179 175.061 295.018 175.166Q294.857 175.271 294.701 175.384Q294.545 175.497 294.394 175.618Q294.244 175.738 294.1 175.866Q293.956 175.993 293.818 176.128Q293.68 176.262 293.549 176.404Q293.417 176.545 293.293 176.692Q293.169 176.839 293.052 176.992Q292.935 177.145 292.826 177.304Q292.717 177.463 292.615 177.626Q292.514 177.79 292.42 177.958Q292.327 178.127 292.242 178.3Q292.157 178.473 292.08 178.649Q292.004 178.826 291.936 179.006Q291.868 179.187 291.809 179.37Q291.75 179.553 291.7 179.739Q291.65 179.925 291.609 180.114Q291.568 180.302 291.536 180.492Q291.504 180.682 291.482 180.873Q291.459 181.064 291.446 181.257Q291.433 181.449 291.429 181.641Q291.425 181.834 291.431 182.026Q291.436 182.219 291.451 182.411Q291.466 182.603 291.49 182.794Q291.515 182.985 291.548 183.175Q291.581 183.365 291.624 183.553Q291.667 183.74 291.719 183.926Q291.77 184.112 291.831 184.294Q291.892 184.477 291.961 184.657Q292.031 184.836 292.109 185.013Q292.187 185.189 292.274 185.361Q292.36 185.533 292.455 185.7Q292.55 185.868 292.653 186.031Q292.756 186.194 292.867 186.351Q292.977 186.509 293.096 186.661Q293.214 186.813 293.34 186.959Q293.465 187.105 293.598 187.245Q293.73 187.385 293.869 187.518Q294.008 187.652 294.154 187.778Q294.299 187.904 294.45 188.023Q294.602 188.143 294.759 188.254Q294.916 188.366 295.078 188.47Q295.24 188.573 295.407 188.669Q295.575 188.765 295.746 188.853Q295.918 188.94 296.093 189.02Q296.269 189.099 296.448 189.169Q296.627 189.24 296.81 189.302Q296.992 189.363 297.178 189.416Q297.363 189.469 297.551 189.513Q297.738 189.556 297.928 189.591Q298.117 189.625 298.308 189.651Q298.499 189.676 298.691 189.692Q298.883 189.708 299.076 189.715Q299.268 189.721 299.461 189.718Q299.653 189.716 299.846 189.704Q300.038 189.692 300.229 189.67Q300.421 189.649 300.611 189.618ZM279.619 133.24Q279.806 133.209 279.992 133.17Q280.177 133.13 280.361 133.081Q280.544 133.032 280.725 132.975Q280.905 132.917 281.083 132.851Q281.261 132.785 281.435 132.71Q281.609 132.635 281.78 132.551Q281.95 132.468 282.116 132.376Q282.283 132.285 282.444 132.185Q282.606 132.086 282.762 131.979Q282.918 131.871 283.07 131.756Q283.221 131.642 283.366 131.52Q283.511 131.398 283.65 131.269Q283.789 131.14 283.922 131.004Q284.055 130.869 284.181 130.727Q284.307 130.585 284.425 130.437Q284.544 130.289 284.656 130.136Q284.767 129.982 284.871 129.823Q284.975 129.665 285.071 129.501Q285.167 129.337 285.255 129.169Q285.343 129.001 285.423 128.829Q285.502 128.657 285.574 128.481Q285.645 128.305 285.707 128.126Q285.77 127.947 285.823 127.765Q285.877 127.583 285.922 127.399Q285.967 127.214 286.002 127.028Q286.038 126.842 286.065 126.654Q286.091 126.466 286.109 126.277Q286.126 126.088 286.134 125.899Q286.142 125.709 286.141 125.519Q286.14 125.33 286.13 125.14Q286.12 124.951 286.1 124.762Q286.081 124.574 286.052 124.386Q286.023 124.198 285.985 124.013Q285.948 123.827 285.901 123.643Q285.854 123.459 285.798 123.278Q285.743 123.096 285.678 122.918Q285.614 122.74 285.54 122.565Q285.467 122.389 285.386 122.218Q285.304 122.047 285.214 121.88Q285.124 121.713 285.027 121.55Q284.929 121.388 284.823 121.23Q284.717 121.073 284.604 120.92Q284.491 120.768 284.37 120.622Q284.25 120.475 284.122 120.335Q283.995 120.194 283.861 120.06Q283.727 119.926 283.586 119.799Q283.445 119.671 283.299 119.551Q283.152 119.431 283 119.317Q282.848 119.204 282.69 119.099Q282.532 118.993 282.37 118.896Q282.207 118.798 282.04 118.708Q281.873 118.619 281.701 118.537Q281.53 118.456 281.355 118.383Q281.18 118.31 281.001 118.245Q280.823 118.181 280.641 118.125Q280.46 118.07 280.276 118.023Q280.092 117.977 279.906 117.939Q279.72 117.901 279.533 117.873Q279.345 117.844 279.157 117.825Q278.968 117.805 278.779 117.795Q278.589 117.785 278.399 117.784Q278.21 117.783 278.02 117.792Q277.831 117.8 277.642 117.818Q277.453 117.835 277.265 117.862Q277.011 117.898 276.76 117.951Q276.51 118.004 276.263 118.073Q276.016 118.142 275.774 118.227Q275.532 118.313 275.297 118.414Q275.061 118.515 274.833 118.631Q274.604 118.747 274.384 118.878Q274.164 119.009 273.952 119.155Q273.741 119.3 273.54 119.459Q273.339 119.618 273.149 119.79Q272.958 119.962 272.78 120.145Q272.601 120.329 272.435 120.525Q272.269 120.72 272.116 120.926Q271.964 121.132 271.825 121.347Q271.686 121.563 271.561 121.787Q271.437 122.011 271.327 122.243Q271.218 122.474 271.124 122.713Q271.03 122.951 270.952 123.196Q270.874 123.44 270.812 123.689Q270.751 123.937 270.705 124.19Q270.66 124.442 270.631 124.697Q270.603 124.951 270.591 125.207Q270.579 125.464 270.585 125.72Q270.59 125.976 270.612 126.231Q270.634 126.487 270.673 126.74Q270.711 126.994 270.767 127.244Q270.822 127.494 270.894 127.74Q270.966 127.986 271.053 128.227Q271.141 128.468 271.245 128.702Q271.348 128.937 271.467 129.164Q271.585 129.391 271.719 129.61Q271.852 129.829 272 130.039Q272.147 130.249 272.308 130.448Q272.469 130.647 272.643 130.836Q272.817 131.024 273.002 131.201Q273.188 131.378 273.385 131.542Q273.582 131.706 273.79 131.856Q273.997 132.007 274.214 132.144Q274.431 132.281 274.656 132.403Q274.881 132.525 275.114 132.632Q275.347 132.739 275.587 132.83Q275.826 132.922 276.071 132.997Q276.316 133.073 276.566 133.132Q276.815 133.191 277.068 133.234Q277.321 133.276 277.576 133.302Q277.831 133.328 278.087 133.337Q278.343 133.346 278.599 133.339Q278.856 133.331 279.111 133.306Q279.366 133.281 279.619 133.24ZM236.865 133.258Q237.052 133.237 237.237 133.206Q237.423 133.176 237.606 133.137Q237.79 133.097 237.972 133.049Q238.153 133 238.332 132.943Q238.511 132.886 238.687 132.82Q238.863 132.754 239.035 132.679Q239.208 132.604 239.376 132.521Q239.545 132.438 239.709 132.347Q239.873 132.256 240.033 132.156Q240.192 132.057 240.347 131.95Q240.501 131.843 240.65 131.729Q240.8 131.614 240.943 131.493Q241.086 131.371 241.223 131.243Q241.36 131.114 241.491 130.979Q241.621 130.844 241.745 130.702Q241.869 130.561 241.985 130.414Q242.102 130.266 242.211 130.113Q242.32 129.96 242.422 129.802Q242.523 129.644 242.617 129.481Q242.711 129.318 242.796 129.151Q242.882 128.984 242.959 128.812Q243.036 128.641 243.105 128.466Q243.173 128.291 243.233 128.113Q243.293 127.935 243.344 127.754Q243.395 127.573 243.438 127.39Q243.48 127.207 243.513 127.022Q243.546 126.837 243.57 126.651Q243.594 126.465 243.608 126.277Q243.623 126.09 243.629 125.902Q243.634 125.714 243.63 125.526Q243.626 125.338 243.613 125.151Q243.6 124.964 243.578 124.777Q243.556 124.59 243.524 124.405Q243.493 124.22 243.452 124.036Q243.412 123.853 243.362 123.672Q243.313 123.49 243.255 123.312Q243.196 123.133 243.129 122.958Q243.062 122.782 242.986 122.61Q242.911 122.438 242.827 122.27Q242.743 122.102 242.651 121.938Q242.558 121.775 242.458 121.616Q242.358 121.457 242.25 121.303Q242.142 121.149 242.027 121.001Q241.912 120.852 241.789 120.71Q241.667 120.567 241.538 120.431Q241.408 120.295 241.272 120.165Q241.137 120.035 240.994 119.912Q240.852 119.789 240.704 119.673Q240.556 119.558 240.403 119.449Q240.249 119.341 240.091 119.24Q239.932 119.14 239.769 119.047Q239.605 118.954 239.437 118.87Q239.269 118.785 239.098 118.709Q238.926 118.633 238.751 118.565Q238.575 118.498 238.397 118.439Q238.219 118.38 238.037 118.33Q237.856 118.28 237.673 118.239Q237.49 118.197 237.304 118.165Q237.119 118.133 236.933 118.111Q236.746 118.088 236.559 118.074Q236.372 118.06 236.184 118.056Q235.996 118.052 235.808 118.057Q235.62 118.061 235.433 118.076Q235.245 118.09 235.059 118.113Q234.874 118.136 234.69 118.168Q234.506 118.2 234.324 118.242Q234.142 118.283 233.963 118.333Q233.783 118.383 233.606 118.441Q233.429 118.5 233.255 118.567Q233.081 118.635 232.91 118.71Q232.74 118.786 232.573 118.87Q232.407 118.954 232.245 119.046Q232.082 119.138 231.925 119.238Q231.767 119.337 231.615 119.445Q231.462 119.552 231.315 119.667Q231.168 119.782 231.027 119.904Q230.885 120.025 230.75 120.154Q230.615 120.282 230.486 120.417Q230.357 120.552 230.235 120.694Q230.113 120.835 229.999 120.982Q229.884 121.129 229.776 121.281Q229.668 121.433 229.568 121.591Q229.468 121.748 229.376 121.91Q229.284 122.073 229.2 122.239Q229.116 122.405 229.04 122.576Q228.964 122.746 228.896 122.92Q228.829 123.094 228.77 123.271Q228.711 123.448 228.661 123.628Q228.61 123.807 228.569 123.989Q228.528 124.171 228.495 124.355Q228.463 124.539 228.439 124.724Q228.416 124.909 228.402 125.095Q228.387 125.281 228.382 125.467Q228.377 125.654 228.381 125.84Q228.385 126.027 228.398 126.213Q228.411 126.399 228.433 126.584Q228.455 126.769 228.486 126.953Q228.517 127.137 228.557 127.319Q228.598 127.501 228.646 127.681Q228.695 127.861 228.753 128.039Q228.811 128.216 228.877 128.39Q228.943 128.565 229.018 128.736Q229.093 128.907 229.176 129.074Q229.259 129.241 229.35 129.403Q229.441 129.566 229.54 129.724Q229.639 129.882 229.745 130.036Q229.852 130.189 229.966 130.336Q230.079 130.484 230.2 130.626Q230.321 130.768 230.449 130.904Q230.577 131.04 230.711 131.169Q230.845 131.299 230.986 131.422Q231.126 131.544 231.272 131.66Q231.419 131.776 231.57 131.884Q231.722 131.993 231.879 132.094Q232.036 132.195 232.197 132.288Q232.359 132.381 232.525 132.466Q232.691 132.551 232.861 132.628Q233.031 132.705 233.204 132.774Q233.378 132.842 233.554 132.902Q233.731 132.962 233.91 133.013Q234.09 133.064 234.271 133.107Q234.453 133.149 234.636 133.183Q234.82 133.216 235.005 133.241Q235.19 133.265 235.376 133.281Q235.562 133.296 235.748 133.302Q235.934 133.309 236.121 133.306Q236.307 133.303 236.494 133.291Q236.68 133.279 236.865 133.258Z"/>
	<path fill="#D400F1" transform="scale(1.3457 1.3457)" d="M72.8441 255.27C73.6012 255.133 74.3674 255.097 75.1012 255.364C76.264 255.787 102.272 281.662 103.866 285.589C100.378 295.402 94.2247 286.456 90.2059 282.368L78.2649 270.28C78.1462 276.576 79.0483 282.983 80.0657 289.187C91.0812 356.358 140.441 411.02 206.083 429.283C212.64 431.107 219.212 433.05 226.002 433.733L215.062 422.493C212.609 420.02 207.543 416.416 206.983 412.717C206.393 408.821 211.016 406.994 213.729 409.406C220.568 415.487 233.227 428.428 239.272 435.677C242.213 439.205 240.792 440.596 237.657 443.486C229.673 450.514 221.527 460.342 213.895 466.553C209.682 469.982 204.615 465.551 207.47 461.05C210.271 456.635 221.668 447.312 226.002 442.37C139.778 429.255 74.5085 357.589 69.4101 270.28C64.3687 274.765 51.9708 290.705 47.4357 290.511C45.2392 290.416 43.1987 288.006 43.5089 285.819C43.8441 283.456 67.9619 258.625 72.8441 255.27Z"/>
	<path fill="#D400F1" transform="scale(1.3457 1.3457)" d="M299.519 44.0033C301.106 43.9497 302.487 44.3351 303.629 45.4946C308.601 50.5449 289.536 63.7207 285.143 67.6559C291.676 68.3365 297.951 69.858 304.282 71.5521C369.467 88.9932 422.557 143.05 438.58 208.679C440.897 218.171 441.927 227.579 443.107 237.253C445.078 235.123 466.337 208.018 468.349 221.401C468.902 225.08 450.045 241.778 446.824 245.082C443.065 248.936 440.167 253.271 434.947 248.894C431.533 245.789 428.463 242.269 425.127 239.072L415.052 229.453C412.949 227.434 408.433 224.202 408.314 220.977C408.238 218.949 410.375 216.726 412.402 216.715C416.032 216.695 419.916 222.351 422.2 224.634L434.947 237.253C433.796 230.57 432.972 223.832 431.556 217.196C416.492 146.603 359.03 89.4211 287.576 76.5469C283.378 75.7905 269.443 76.0845 272.039 68.3649C272.63 66.6094 296.533 45.5307 299.519 44.0033Z"/>
	<path fill="#2400EE" transform="scale(1.3457 1.3457)" d="M437.831 275.267C440.313 275.139 441.565 276.118 443.107 278.039C443.068 284.407 441.363 293.259 439.948 299.619C424.175 370.517 366.339 426.743 295.227 441.313C287.284 442.94 276.956 444.6 268.861 444.581C265.329 444.804 262.427 442.871 264.008 438.812C265.404 435.231 282.753 434.994 287.037 434.334C360.728 422.973 420.582 362.522 432.54 289.423C433.415 284.077 432.197 277.961 437.831 275.267Z"/>
	<path fill="#D400F1" transform="scale(1.3457 1.3457)" d="M242.378 65.2607C245.348 65.1834 254.187 64.961 251.82 70.6973C250.334 74.2977 245.578 73.876 242.4 74.1193C166.902 79.8988 100.406 134.75 82.0726 208.803C80.9975 213.145 80.8567 217.74 79.0885 221.897C78.4838 223.073 77.6173 224.097 76.228 224.32C67.6274 225.702 72.9112 210.658 73.8258 207.069C94.1327 127.376 160.947 73.3236 242.378 65.2607Z"/>
</svg>
